<svg xmlns="http://www.w3.org/2000/svg" viewBox="0 0 700 320" width="700" height="320" font-family="'Noto Sans JP', -apple-system, BlinkMacSystemFont, 'Segoe UI', Roboto, 'Helvetica Neue', Arial, sans-serif">
  <rect x="0.5" y="0.5" width="699" height="319" rx="16" fill="#f6f7f9" stroke="#e9ecef" stroke-width="1"/>
  <path d="M 350 86 C 350 152, 130 160, 130 226" fill="none" stroke="#868e96" stroke-width="1.5" stroke-opacity="0.55"/>
  <path d="M 350 86 C 350 152, 350 178, 350 244" fill="none" stroke="#868e96" stroke-width="1.5" stroke-opacity="0.55"/>
  <path d="M 350 86 C 350 152, 570 160, 570 226" fill="none" stroke="#868e96" stroke-width="1.5" stroke-opacity="0.55"/>
  
  <circle cx="347.5" cy="97.7" r="3.8" fill="#e91e63" fill-opacity="0.47"/>
  <circle cx="335.9" cy="112.9" r="3.4" fill="#e91e63" fill-opacity="0.79"/>
  <circle cx="317.6" cy="125.4" r="3.0" fill="#e91e63" fill-opacity="0.64"/>
  <circle cx="293.1" cy="136.9" r="3.8" fill="#e91e63" fill-opacity="0.69"/>
  <circle cx="264.5" cy="147.7" r="2.9" fill="#e91e63" fill-opacity="0.85"/>
  <circle cx="240.4" cy="155.9" r="2.9" fill="#e91e63" fill-opacity="0.73"/>
  <circle cx="205.6" cy="167.9" r="4.1" fill="#e91e63" fill-opacity="0.60"/>
  <circle cx="186.3" cy="175.3" r="3.1" fill="#e91e63" fill-opacity="0.80"/>
  <circle cx="157.3" cy="189.6" r="2.9" fill="#e91e63" fill-opacity="0.66"/>
  <circle cx="141.4" cy="201.7" r="3.5" fill="#e91e63" fill-opacity="0.53"/>
  <circle cx="132.2" cy="214.8" r="2.2" fill="#e91e63" fill-opacity="0.54"/>
  <circle cx="350.0" cy="94.1" r="2.2" fill="#e91e63" fill-opacity="0.81"/>
  <circle cx="350.0" cy="108.6" r="3.5" fill="#e91e63" fill-opacity="0.80"/>
  <circle cx="350.0" cy="124.9" r="4.0" fill="#e91e63" fill-opacity="0.64"/>
  <circle cx="350.0" cy="139.1" r="2.7" fill="#e91e63" fill-opacity="0.44"/>
  <circle cx="350.0" cy="151.3" r="3.3" fill="#e91e63" fill-opacity="0.65"/>
  <circle cx="350.0" cy="162.6" r="3.8" fill="#e91e63" fill-opacity="0.47"/>
  <circle cx="350.0" cy="179.8" r="3.1" fill="#e91e63" fill-opacity="0.63"/>
  <circle cx="350.0" cy="190.6" r="2.5" fill="#e91e63" fill-opacity="0.74"/>
  <circle cx="350.0" cy="206.4" r="3.9" fill="#e91e63" fill-opacity="0.60"/>
  <circle cx="350.0" cy="216.7" r="2.5" fill="#e91e63" fill-opacity="0.77"/>
  <circle cx="350.0" cy="233.1" r="2.6" fill="#e91e63" fill-opacity="0.37"/>
  <circle cx="351.0" cy="93.6" r="3.4" fill="#e91e63" fill-opacity="0.56"/>
  <circle cx="361.3" cy="110.2" r="3.9" fill="#e91e63" fill-opacity="0.63"/>
  <circle cx="379.5" cy="123.7" r="2.8" fill="#e91e63" fill-opacity="0.56"/>
  <circle cx="401.6" cy="134.7" r="4.1" fill="#e91e63" fill-opacity="0.52"/>
  <circle cx="434.6" cy="147.3" r="4.2" fill="#e91e63" fill-opacity="0.47"/>
  <circle cx="464.7" cy="157.6" r="4.2" fill="#e91e63" fill-opacity="0.56"/>
  <circle cx="485.1" cy="164.6" r="4.1" fill="#e91e63" fill-opacity="0.69"/>
  <circle cx="520.2" cy="178.1" r="2.9" fill="#e91e63" fill-opacity="0.82"/>
  <circle cx="538.1" cy="186.9" r="2.1" fill="#e91e63" fill-opacity="0.68"/>
  <circle cx="559.9" cy="203.0" r="3.1" fill="#e91e63" fill-opacity="0.59"/>
  <circle cx="567.9" cy="215.2" r="2.7" fill="#e91e63" fill-opacity="0.49"/>
  
  <circle cx="350" cy="62" r="26" fill="#fff" stroke="#e91e63" stroke-width="2.5"/>
  <text x="350" y="67" font-size="12" font-weight="700" fill="#495057" text-anchor="middle">source</text>
  <circle cx="130" cy="250" r="22" fill="#fff" stroke="#868e96" stroke-width="2"/>
  <text x="130" y="292" font-size="13" font-weight="400" fill="#495057" text-anchor="middle">WSL</text>
  <circle cx="350" cy="268" r="22" fill="#fff" stroke="#868e96" stroke-width="2"/>
  <text x="350" y="310" font-size="13" font-weight="400" fill="#495057" text-anchor="middle">Mac (private)</text>
  <circle cx="570" cy="250" r="22" fill="#fff" stroke="#868e96" stroke-width="2"/>
  <text x="570" y="292" font-size="13" font-weight="400" fill="#495057" text-anchor="middle">Mac (work)</text>
  
</svg>
